/vscmnt/brussel_pixiu_data/_data_brussel/112/vsc11236/PredSimResults/SUBJ04opt3D/worker_15.mot
version=1
nRows=11
nColumns=50
inDegrees=yes
endheader
                time	         pelvis_tilt	         pelvis_list	     pelvis_rotation	           pelvis_tx	           pelvis_ty	           pelvis_tz	       hip_flexion_r	     hip_adduction_r	      hip_rotation_r	        knee_angle_r	       ankle_angle_r	         mtp_angle_r	       hip_flexion_l	     hip_adduction_l	      hip_rotation_l	        knee_angle_l	       ankle_angle_l	         mtp_angle_l	    lumbar_extension	      lumbar_bending	     lumbar_rotation	 ercspn_r/activation	 intobl_r/activation	 extobl_r/activation	    abd_r/activation	    add_r/activation	hamstrings_r/activation	bifemsh_r/activation	glut_max_r/activation	iliopsoas_r/activation	rect_fem_r/activation	  vasti_r/activation	gastroc_r/activation	 soleus_r/activation	tib_ant_r/activation	 ercspn_l/activation	 intobl_l/activation	 extobl_l/activation	    abd_l/activation	    add_l/activation	hamstrings_l/activation	bifemsh_l/activation	glut_max_l/activation	iliopsoas_l/activation	rect_fem_l/activation	  vasti_l/activation	gastroc_l/activation	 soleus_l/activation	tib_ant_l/activation	
          1.00000001	        -17.42931644	          6.69901142	        -10.46246421	          2.00000002	          0.84583513	          0.02230873	          1.57709811	         -4.91151672	         10.44737838	        -24.21141750	          1.53110805	         44.49981029	         46.81722453	         -0.16913062	          2.85436302	        -18.88428517	          0.82590088	          0.20154571	         -0.54142923	         -4.39416326	          1.27973994	          0.21643486	          0.35993514	          0.00999999	          0.08192191	          0.03225024	          0.08016060	          0.38264552	          0.04294883	          0.69115824	          0.01122149	          0.00999999	          0.22137976	          0.25658334	          0.02138577	          0.23381857	          0.04674390	          0.00999999	          0.02782185	          0.35869937	          0.08611973	          0.26371571	          0.06205714	          0.12086184	          0.04053514	          0.01018091	          0.09744160	          0.00999999	          0.40143862	
          1.02000001	        -16.91604173	          6.46459800	        -10.90894597	          2.05064499	          0.84230650	          0.01966286	          2.28897261	         -4.95467965	          8.78900758	        -31.42183587	         -2.91912278	         44.26533453	         46.48148188	          0.69999467	          3.03843423	        -25.55141696	          2.20110528	          0.19963784	          0.21344585	         -4.13441494	          1.07514402	          0.26726905	          0.26995135	          0.00999999	          0.06144143	          0.02418768	          0.06012045	          0.28698414	          0.03221162	          0.84607603	          0.00999999	          0.00999999	          0.16603482	          0.19243751	          0.01603933	          0.17536393	          0.03505793	          0.00999999	          0.18791803	          0.42092351	          0.08315492	          0.19778678	          0.46868529	          0.09064638	          0.03040135	          0.00999999	          0.07308120	          0.00999999	          0.30107897	
          1.04000001	        -16.34618339	          6.23462061	        -11.30233382	          2.09998969	          0.83938152	          0.01642908	          4.98916926	         -5.23575349	          6.33253385	        -41.02005698	         -9.37089164	         41.03968273	         46.08575522	          1.59174220	          3.10538012	        -32.50769468	          6.48035652	          2.00144079	          0.74407241	         -3.74412582	          0.57204319	          0.33258974	          0.20246351	          0.00999999	          0.04608108	          0.01814076	          0.04509034	          0.21523811	          0.02415871	          0.63455702	          0.23851022	          0.00999999	          0.12452612	          0.14432813	          0.01202949	          0.13152295	          0.02629345	          0.00999999	          0.44331731	          0.31569263	          0.09018177	          0.14834009	          0.57393427	          0.06798478	          0.02280101	          0.32883782	          0.16320042	          0.24724306	          0.22580922	
          1.06000001	        -15.82908845	          5.95702710	        -11.64363722	          2.14720212	          0.83960128	          0.01298023	          9.03042291	         -6.18993871	          2.96312380	        -50.25720575	        -19.06814454	         34.34069593	         44.18207336	          2.36297465	          3.14956053	        -36.38016934	         10.02040056	          5.57080027	          1.04389019	         -3.20040665	         -0.10706253	          0.35304160	          0.15184763	          0.22640148	          0.03456081	          0.01360557	          0.03381775	          0.36227411	          0.01811904	          0.47591776	          0.43532261	          0.00999999	          0.09339459	          0.10824610	          0.00999999	          0.09864221	          0.01972008	          0.00999999	          0.56642677	          0.23676947	          0.12060486	          0.11125507	          0.43045070	          0.05098859	          0.01710076	          0.68469527	          0.24931157	          0.41373912	          0.16935692	
          1.08000001	        -15.41888895	          5.64291779	        -11.87985826	          2.19171451	          0.84464600	          0.00950398	         13.63927960	         -7.74472256	         -0.81048759	        -57.21419144	        -28.95315942	         26.51333251	         40.69613073	          3.00587995	          3.22601726	        -36.69716139	         11.96175321	          9.55878821	          1.06725403	         -2.53712189	         -0.88155676	          0.29820279	          0.16455129	          0.19642025	          0.02592060	          0.01020418	          0.02536332	          0.57591959	          0.01358928	          0.35693832	          0.49680296	          0.00999999	          0.07544886	          0.08118457	          0.00999999	          0.07398166	          0.01479006	          0.00999999	          0.51237686	          0.17757710	          0.13111478	          0.08344130	          0.32283803	          0.03824144	          0.01282557	          0.51352145	          0.34624401	          0.54397881	          0.12701769	
          1.10000001	        -15.08979542	          5.05116150	        -12.10739388	          2.23349607	          0.85383499	          0.00611648	         18.49260057	         -9.25453607	         -4.60510799	        -62.48839042	        -32.68586361	         20.45039474	         36.77915150	          3.30718947	          3.48248876	        -35.50727809	         11.95560676	         13.69591831	          0.73216192	         -1.48103547	         -1.60644519	          0.33165432	          0.33047144	          0.14731518	          0.01944045	          0.00999999	          0.01902249	          0.73215072	          0.01019196	          0.26770374	          0.43514026	          0.00999999	          0.11490277	          0.06088843	          0.08135734	          0.05548624	          0.01109255	          0.00999999	          0.38428264	          0.13318283	          0.13393843	          0.06258097	          0.24212852	          0.02868108	          0.00999999	          0.38514109	          0.41832435	          0.57487152	          0.09526327	
          1.12000001	        -14.76740122	          4.09431522	        -12.46584173	          2.27337810	          0.86577537	          0.00276595	         23.43115218	        -10.40731389	         -8.26271897	        -66.39636986	        -33.54143336	         15.77515743	         32.70256921	          3.12692832	          3.66441637	        -33.58948779	         10.31717500	         18.11234250	          0.05828163	          0.11571126	         -2.12260476	          0.36899189	          0.34782092	          0.15131443	          0.01458034	          0.00999999	          0.01426686	          0.85279339	          0.00999999	          0.21523248	          0.34289962	          0.00999999	          0.15036775	          0.04566632	          0.15726610	          0.04161468	          0.00999999	          0.00999999	          0.28821198	          0.09988712	          0.10045382	          0.04693573	          0.18159639	          0.02151081	          0.00999999	          0.28885581	          0.45996934	          0.54130746	          0.07144745	
          1.14000001	        -14.39418624	          2.87491724	        -12.92384473	          2.31218770	          0.87946753	         -0.00075911	         28.21230733	        -11.21063214	        -11.82466972	        -69.14294886	        -33.13850616	         12.16592473	         28.68215422	          2.61172117	          3.53428901	        -31.50340807	          7.31564105	         22.83127016	         -0.89131238	          2.15702803	         -2.38933634	          0.40094822	          0.34269006	          0.11348582	          0.01093525	          0.02297903	          0.01070015	          0.83970050	          0.00999999	          0.18686162	          0.25885778	          0.00999999	          0.15339377	          0.03424974	          0.15602620	          0.03121101	          0.00999999	          0.00999999	          0.21615899	          0.07491534	          0.07534036	          0.03520180	          0.13619729	          0.01613311	          0.00999999	          0.21664186	          0.47257592	          0.40598060	          0.05358559	
          1.16000001	        -13.95127887	          1.35914045	        -13.48643064	          2.35068490	          0.89405697	         -0.00435654	         32.50672024	        -11.48540567	        -15.30685273	        -70.65061733	        -32.54639345	          9.38747491	         24.84297501	          1.77496548	          3.10076600	        -29.73471700	          3.54909431	         27.42237896	         -2.05600535	          4.65474555	         -2.32292385	          0.30255137	          0.25701754	          0.08511436	          0.00999999	          0.04052443	          0.00999999	          0.70673189	          0.00999999	          0.20972927	          0.19414334	          0.00999999	          0.15680943	          0.02568731	          0.11701967	          0.02340826	          0.00999999	          0.00999999	          0.16211924	          0.05618650	          0.05650527	          0.58651506	          0.10214797	          0.06266741	          0.01333332	          0.16248139	          0.40780829	          0.30448545	          0.04018919	
          1.18000001	        -13.44274875	         -0.30706793	        -14.05164162	          2.38884329	          0.90839219	         -0.00794870	         36.19820838	        -11.27461584	        -18.62999367	        -70.90756653	        -32.34452507	          7.25168915	         21.86785902	          0.83981712	          2.50580224	        -29.50351496	         -0.74772913	         31.69548318	         -3.41280540	          7.34403935	         -1.97640392	          0.22691353	          0.19276316	          0.23213789	          0.00999999	          0.05702338	          0.00999999	          0.53004891	          0.00999999	          0.15729695	          0.14560750	          0.00999999	          0.15945225	          0.01926548	          0.08776475	          0.01755619	          0.09259155	          0.05610313	          0.12158943	          0.04213988	          0.07491534	          0.82279218	          0.13362674	          0.34954412	          0.00999999	          0.12186105	          0.30585622	          0.22836408	          0.03014189	
          1.20000001	        -12.84639938	         -1.96189892	        -14.51611445	          2.42621149	          0.92134928	         -0.01151013	         39.16306403	        -10.71530569	        -21.72109411	        -69.83379647	        -32.41605533	          5.61481047	         20.41113823	          0.00906260	          2.02976994	        -31.94410998	         -4.96660034	         34.39313929	         -5.02125380	          9.92148848	         -1.35405902	          0.17018515	          0.19876202	          0.26904234	          0.02585051	          0.06284067	          0.03181249	          0.39753668	          0.01333332	          0.11797271	          0.10920563	          0.01777776	          0.16515122	          0.01444911	          0.06582356	          0.01316714	          0.35896188	          0.04207735	          0.13327629	          0.03160491	          0.05618650	          0.62945096	          0.10022005	          0.72123320	          0.00999999	          0.09139578	          0.22939216	          0.17127306	          0.02260642	
